<svg width="80" height="80" viewBox="0 0 80 80" fill="none" xmlns="http://www.w3.org/2000/svg">
<path d="M78.0848 39.8021C78.0848 61.2878 60.6717 78.7008 39.1861 78.7008C17.7041 78.7008 0.292847 61.2878 0.292847 39.8021C0.292847 18.3145 17.7044 0.899292 39.1861 0.899292C60.6717 0.899292 78.0848 18.3145 78.0848 39.8021Z" fill="black"/>
<path d="M76.1923 23.0169L76.3469 22.9717C76.4109 23.2369 76.584 23.3629 76.8548 23.3629C76.9677 23.3629 77.058 23.3289 77.1179 23.2668C77.178 23.2009 77.2157 23.1164 77.2157 23.0057C77.2157 22.8705 77.1292 22.7705 76.9635 22.6972C76.8092 22.6313 76.6551 22.5748 76.4972 22.5092C76.3315 22.4172 76.2527 22.2929 76.2527 22.1273C76.2527 21.9805 76.2903 21.8733 76.3804 21.7885C76.4711 21.7041 76.5988 21.6569 76.7567 21.6569C76.8992 21.6569 77.0201 21.6964 77.1215 21.7737C77.2231 21.8412 77.2909 21.9505 77.3321 22.0897L77.1893 22.1349C77.1176 21.9073 76.9748 21.7924 76.7567 21.7924C76.6548 21.7924 76.5683 21.8225 76.5043 21.8773C76.4329 21.9393 76.4109 22.0201 76.4109 22.1273C76.4109 22.1933 76.4254 22.2513 76.4708 22.2929C76.5155 22.3436 76.6136 22.3965 76.7715 22.4545C77.016 22.5505 77.178 22.6313 77.2607 22.7124C77.336 22.7857 77.3736 22.8909 77.3736 23.0245C77.3736 23.1713 77.3209 23.2917 77.2151 23.3801C77.1099 23.4573 76.986 23.4985 76.8317 23.4985C76.6583 23.4985 76.5197 23.4609 76.418 23.3801C76.3203 23.3065 76.2453 23.1785 76.1923 23.0169Z" fill="black"/>
<path d="M77.9005 23.4721H77.7349V21.6853H78.0208L78.5174 23.1993H78.5254L79.0175 21.6853H79.3076V23.4721H79.1417V21.8185L78.6 23.4721H78.4421L77.9005 21.8185V23.4721Z" fill="black"/>
<path d="M13.7412 51.514C14.4108 48.3167 15.1048 41.2254 15.9944 32.7087L19.0152 32.7013L19.226 31.3676L16.16 31.3751C16.4384 28.7399 16.95 23.0539 19.412 22.0307C20.078 23.1855 20.7172 24.0791 22.1316 24.1055C23.0476 24.1263 23.8564 23.7179 23.8716 22.7191C23.9036 21.3067 21.7312 20.7311 20.6216 20.7123C18.5564 20.6783 12.6936 21.4475 11.2492 29.3419L10.8748 31.3751L8.49521 31.3863L8.27879 32.7276L10.6788 32.7351C9.98481 38.9176 8.61719 51.4236 8.24519 53.1392C7.41959 56.9007 7.13159 57.8035 5.25079 58.8272C5.47841 59.2296 5.70961 59.6242 5.95239 60.0192C9.16481 59.0379 12.778 56.1036 13.7412 51.514Z" fill="white"/>
<path d="M30.5259 37.8907C30.5259 36.3109 30.4151 32.566 28.1031 32.566C24.6855 32.566 24.2079 39.1381 24.2079 41.5266C24.2079 43.0652 24.3207 46.8122 26.6308 46.8122C30.0447 46.8122 30.5259 40.2403 30.5259 37.8907ZM18.8851 42.4786C18.8851 36.4181 22.8479 31.1683 29.4239 31.1683C33.466 31.1683 35.8491 32.9683 35.8491 36.8957C35.8491 42.9562 31.8859 48.2149 25.3103 48.2149C21.2703 48.2152 18.8851 46.4134 18.8851 42.4786Z" fill="white"/>
<path d="M48.8856 37.8907C48.8856 36.3109 48.7769 32.566 46.4667 32.566C43.0513 32.566 42.5695 39.1381 42.5695 41.5266C42.5695 43.0652 42.6824 46.8122 44.9923 46.8122C48.4116 46.8122 48.8856 40.2403 48.8856 37.8907ZM37.2448 42.4786C37.2448 36.4181 41.208 31.1683 47.7837 31.1683C51.8311 31.1683 54.2125 32.9683 54.2125 36.8957C54.2125 42.9562 50.2513 48.2149 43.6753 48.2149C39.6335 48.2152 37.2448 46.4134 37.2448 42.4786Z" fill="white"/>
<path d="M65.7799 40.7179C66.656 38.4456 66.9574 36.3505 67.4353 32.9327C67.2507 32.8595 67.0288 32.8257 66.8483 32.8257C62.8045 32.8257 60.8934 38.6995 60.8934 41.9709C60.8934 42.776 61.0777 44.7244 62.2513 44.7244C63.8688 44.7244 65.2984 41.9709 65.7799 40.7179ZM74.1876 46.1875C71.8741 47.2971 69.0528 48.2115 67.104 48.2115C66.1111 48.2115 66.1485 46.6355 66.1485 45.97C66.1485 45.1985 66.2237 44.1339 66.4045 42.08L66.3292 42.0047C65.0083 44.6533 62.4356 48.2121 59.1289 48.2121C56.4919 48.2121 55.3861 45.4583 55.3861 43.1789C55.3861 37.4136 59.9417 31.4231 66.2951 31.4231H67.6157C68.1349 27.4244 68.1648 25.7336 68.1648 24.524C68.1648 24.1196 68.1648 23.7528 67.7245 23.7528C67.3897 23.7528 66.8857 23.858 65.5917 24.2664L65.2679 23.2C67.8712 22.282 70.7076 21.6972 73.2317 21.624C73.5624 21.624 73.6753 21.624 73.6753 22.1748C73.6753 25.5528 71.136 42.9943 71.136 44.7552C71.136 45.2367 71.136 45.8613 71.6175 45.8613C71.8732 45.8613 72.7236 45.568 73.8593 45.1656L74.1876 46.1875Z" fill="white"/>
<path d="M24.3925 57.2548V52.5487H25.4253V53.0569C25.8373 52.7636 26.3149 52.4625 26.8696 52.4625C27.8045 52.4625 28.2597 53.0797 28.2597 54.0353V57.2551H27.1384V54.2C27.1384 53.5606 26.9389 53.3653 26.5613 53.3653C26.076 53.3653 25.7016 53.6433 25.5136 53.8616V57.2545H24.3925V57.2548Z" fill="white"/>
<path d="M33.0658 54.3209C33.0489 53.67 32.7025 53.294 32.1588 53.294C31.6207 53.294 31.2765 53.67 31.2539 54.3209H33.0658ZM31.2539 55.0845C31.2765 56.059 31.7093 56.4424 32.2362 56.4424C32.7567 56.4424 32.9997 56.2018 33.28 55.8786L34.0963 56.3826C33.6658 57.0522 33.0299 57.3381 32.1253 57.3381C30.9046 57.3381 30.1407 56.3941 30.1407 54.904C30.1407 53.411 30.9043 52.4626 32.1831 52.4626C33.4116 52.4477 34.096 53.4934 34.096 54.6217V55.0845H31.2539Z" fill="white"/>
<path d="M36.2815 52.5487V51.0029H37.4027V52.5487H38.3265V53.4557H37.4027V56.1188C37.4027 56.3668 37.5345 56.4423 37.8113 56.4423C37.9804 56.4423 38.1612 56.386 38.3265 56.3449V57.2776C38.0163 57.3075 37.7452 57.3416 37.4367 57.3416C36.6056 57.3416 36.2821 56.9315 36.2821 56.2545V53.4557H35.6353V52.5487H36.2815Z" fill="white"/>
<path d="M39.7087 52.5487H40.7751L41.4148 55.4791H41.4296L42.1105 52.5487H43.1452L43.8036 55.4791H43.8184L44.4957 52.5487H45.5567L44.3452 57.2548H43.3256L42.6373 54.3208H42.6148L41.9301 57.2548H40.9179L39.7087 52.5487Z" fill="white"/>
<path d="M48.9873 53.3653C48.363 53.3653 48.0697 53.8539 48.0697 54.9001C48.0697 55.9455 48.363 56.4421 48.9873 56.4421C49.6122 56.4421 49.9094 55.9455 49.9094 54.9001C49.9088 53.8539 49.6116 53.3653 48.9873 53.3653ZM48.9873 52.4619C50.2664 52.4619 51.0335 53.4139 51.0335 54.9001C51.0335 56.3973 50.2664 57.3375 48.9873 57.3375C47.712 57.3375 46.9485 56.3973 46.9485 54.9001C46.9485 53.4139 47.712 52.4619 48.9873 52.4619Z" fill="white"/>
<path d="M52.8397 57.2548V52.5487H53.8664V53.3573H53.8854C54.1562 52.7932 54.5322 52.4773 55.2098 52.4619V53.6432C55.1496 53.6397 55.0818 53.6397 55.0065 53.6397C54.4492 53.6397 53.9603 54.2824 53.9603 54.3955V57.2545H52.8397V57.2548Z" fill="white"/>
<path d="M57.0035 57.2548V50.728H58.1247V54.3657H58.1585L59.5464 52.5488H60.8293L59.4415 54.3055L60.9271 57.2548H59.7309L58.6924 55.1482L58.1247 55.8027V57.2548H57.0035Z" fill="white"/>
</svg>
