<svg width="68" height="86" viewBox="0 0 68 86" fill="none" xmlns="http://www.w3.org/2000/svg">
<path d="M34.0378 0.046875C15.6238 0.046875 0.642609 15.0226 0.642609 33.4305C0.642609 44.8175 6.04621 57.0425 16.7036 69.7663C24.531 79.1118 32.2522 85.1224 32.577 85.3737C33.0074 85.7065 33.5226 85.8728 34.0382 85.8728C34.5534 85.8728 35.069 85.7065 35.4994 85.3737C35.824 85.1224 43.5452 79.1118 51.3728 69.7663C62.0304 57.0425 67.434 44.8179 67.434 33.4305C67.4334 15.0226 52.452 0.046875 34.0378 0.046875ZM46.4054 33.4301C46.4054 40.2579 40.8682 45.7938 34.0378 45.7938C27.2076 45.7938 21.6704 40.2583 21.6704 33.4301C21.6704 26.6019 27.2076 21.067 34.0378 21.067C40.868 21.067 46.4054 26.6023 46.4054 33.4301Z" fill="#CC2A41"/>
</svg>
